<svg width="269" height="197" viewBox="0 0 269 197" fill="none" xmlns="http://www.w3.org/2000/svg">
<path d="M166 98H172C178.365 98 184.47 100.529 188.971 105.029C193.471 109.53 196 115.635 196 122C196 128.365 193.471 134.47 188.971 138.971C184.47 143.471 178.365 146 172 146H166" stroke="black" stroke-width="8" stroke-linecap="round" stroke-linejoin="round"/>
<path d="M70 98H166V152C166 158.365 163.471 164.47 158.971 168.971C154.47 173.471 148.365 176 142 176H94C87.6348 176 81.5303 173.471 77.0294 168.971C72.5286 164.47 70 158.365 70 152V98Z" stroke="black" stroke-width="8" stroke-linecap="round" stroke-linejoin="round"/>
<g filter="url(#filter0_i_1_10)">
<path d="M68.0296 32.3212C69.6654 30.6757 71.6824 29.4598 73.9014 28.7817C76.1204 28.1035 78.4725 27.9842 80.7488 28.4342C83.025 28.8842 85.1548 29.8896 86.9488 31.3611C88.7428 32.8325 90.1455 34.7245 91.0321 36.8687C91.9187 39.0129 92.2618 41.343 92.0308 43.6517C91.7999 45.9605 91.0021 48.1764 89.7084 50.1026C88.4147 52.0287 86.6651 53.6054 84.6152 54.6924C82.5653 55.7794 80.2786 56.3431 77.9583 56.3333H14.5833M89.1546 136.679C90.7904 138.324 92.8074 139.54 95.0264 140.218C97.2454 140.896 99.5975 141.016 101.874 140.566C104.15 140.116 106.28 139.11 108.074 137.639C109.868 136.167 111.27 134.275 112.157 132.131C113.044 129.987 113.387 127.657 113.156 125.348C112.925 123.039 112.127 120.824 110.833 118.897C109.54 116.971 107.79 115.395 105.74 114.308C103.69 113.221 101.404 112.657 99.0833 112.667H14.5833M125.349 54.4321C127.397 52.3892 129.917 50.8825 132.686 50.0452C135.455 49.2079 138.387 49.0659 141.224 49.6317C144.061 50.1974 146.715 51.4536 148.951 53.289C151.186 55.1244 152.936 57.4825 154.043 60.1548C155.151 62.827 155.583 65.7311 155.301 68.6101C155.02 71.4891 154.033 74.2543 152.428 76.6612C150.824 79.0681 148.651 81.0424 146.101 82.4096C143.552 83.7769 140.705 84.4948 137.812 84.5H14.5833" stroke="#0070F3" stroke-width="8" stroke-linecap="round" stroke-linejoin="round"/>
</g>
<defs>
<filter id="filter0_i_1_10" x="10.5833" y="24.1668" width="148.802" height="120.666" filterUnits="userSpaceOnUse" color-interpolation-filters="sRGB">
<feFlood flood-opacity="0" result="BackgroundImageFix"/>
<feBlend mode="normal" in="SourceGraphic" in2="BackgroundImageFix" result="shape"/>
<feColorMatrix in="SourceAlpha" type="matrix" values="0 0 0 0 0 0 0 0 0 0 0 0 0 0 0 0 0 0 127 0" result="hardAlpha"/>
<feOffset dx="-157" dy="4"/>
<feGaussianBlur stdDeviation="2"/>
<feComposite in2="hardAlpha" operator="arithmetic" k2="-1" k3="1"/>
<feColorMatrix type="matrix" values="0 0 0 0 0 0 0 0 0 0 0 0 0 0 0 0 0 0 0.25 0"/>
<feBlend mode="normal" in2="shape" result="effect1_innerShadow_1_10"/>
</filter>
</defs>
</svg>
